<mxfile host="app.diagrams.net" modified="2024-02-26T12:14:23.196Z" agent="Mozilla/5.0 (Windows NT 10.0; Win64; x64) AppleWebKit/537.36 (KHTML, like Gecko) Chrome/122.0.0.0 Safari/537.36" etag="21NDKCl4z6QaYrMEnkEN" version="23.1.6" type="device">
  <diagram name="Page-1" id="UA7jl2AED5K5mrXN_Ce9">
    <mxGraphModel dx="899" dy="583" grid="0" gridSize="10" guides="1" tooltips="1" connect="1" arrows="1" fold="1" page="1" pageScale="1" pageWidth="850" pageHeight="1100" math="0" shadow="0">
      <root>
        <mxCell id="0" />
        <mxCell id="1" parent="0" />
        <mxCell id="gP8CDhVlUT90JA3iP7vQ-1" value="&lt;p style=&quot;margin:0px;margin-top:4px;text-align:center;&quot;&gt;&lt;b&gt;SCA&lt;/b&gt;&lt;/p&gt;&lt;hr size=&quot;1&quot;&gt;&lt;p style=&quot;margin:0px;margin-left:4px;&quot;&gt;+ gravador: GravadorAluno&lt;/p&gt;&lt;hr size=&quot;1&quot;&gt;&lt;p style=&quot;margin:0px;margin-left:4px;&quot;&gt;+ main():void&lt;/p&gt;&lt;p style=&quot;margin:0px;margin-left:4px;&quot;&gt;+ setGravador(gravador: GravadorAluno)&lt;/p&gt;&lt;p style=&quot;margin:0px;margin-left:4px;&quot;&gt;+ lerEntradaUsuario(): Aluno&lt;/p&gt;&lt;p style=&quot;margin:0px;margin-left:4px;&quot;&gt;(...)&lt;/p&gt;" style="verticalAlign=top;align=left;overflow=fill;html=1;whiteSpace=wrap;" vertex="1" parent="1">
          <mxGeometry x="80" y="120" width="250" height="110" as="geometry" />
        </mxCell>
        <mxCell id="gP8CDhVlUT90JA3iP7vQ-2" value="&lt;p style=&quot;margin:0px;margin-top:4px;text-align:center;&quot;&gt;&lt;i&gt;&amp;lt;&amp;lt;Interface&amp;gt;&amp;gt;&lt;/i&gt;&lt;br&gt;&lt;b&gt;GravadorAluno&lt;/b&gt;&lt;/p&gt;&lt;hr size=&quot;1&quot;&gt;&lt;p style=&quot;margin:0px;margin-left:4px;&quot;&gt;&lt;span style=&quot;background-color: initial;&quot;&gt;+ salvar(Aluno: Aluno): void&lt;/span&gt;&lt;br&gt;&lt;/p&gt;&lt;p style=&quot;margin:0px;margin-left:4px;&quot;&gt;+ recuperarAlunos(): List&amp;lt;Aluno&amp;gt;&lt;/p&gt;" style="verticalAlign=top;align=left;overflow=fill;html=1;whiteSpace=wrap;" vertex="1" parent="1">
          <mxGeometry x="400" y="105" width="190" height="140" as="geometry" />
        </mxCell>
        <mxCell id="gP8CDhVlUT90JA3iP7vQ-3" value="GravadorCSV" style="swimlane;fontStyle=0;childLayout=stackLayout;horizontal=1;startSize=26;fillColor=none;horizontalStack=0;resizeParent=1;resizeParentMax=0;resizeLast=0;collapsible=1;marginBottom=0;whiteSpace=wrap;html=1;" vertex="1" parent="1">
          <mxGeometry x="670" y="105" width="230" height="100" as="geometry" />
        </mxCell>
        <mxCell id="gP8CDhVlUT90JA3iP7vQ-4" value="&lt;p style=&quot;border-color: var(--border-color); margin: 0px 0px 0px 4px;&quot;&gt;+ salvar(Aluno: Aluno): void&lt;br style=&quot;border-color: var(--border-color);&quot;&gt;&lt;/p&gt;&lt;p style=&quot;border-color: var(--border-color); margin: 0px 0px 0px 4px;&quot;&gt;+ recuperarAlunos(): List&amp;lt;Aluno&amp;gt;&lt;/p&gt;" style="text;strokeColor=none;fillColor=none;align=left;verticalAlign=top;spacingLeft=4;spacingRight=4;overflow=hidden;rotatable=0;points=[[0,0.5],[1,0.5]];portConstraint=eastwest;whiteSpace=wrap;html=1;" vertex="1" parent="gP8CDhVlUT90JA3iP7vQ-3">
          <mxGeometry y="26" width="230" height="74" as="geometry" />
        </mxCell>
        <mxCell id="gP8CDhVlUT90JA3iP7vQ-11" value="GravadorXML" style="swimlane;fontStyle=0;childLayout=stackLayout;horizontal=1;startSize=26;fillColor=none;horizontalStack=0;resizeParent=1;resizeParentMax=0;resizeLast=0;collapsible=1;marginBottom=0;whiteSpace=wrap;html=1;" vertex="1" parent="1">
          <mxGeometry x="666" y="228" width="230" height="100" as="geometry" />
        </mxCell>
        <mxCell id="gP8CDhVlUT90JA3iP7vQ-12" value="&lt;p style=&quot;border-color: var(--border-color); margin: 0px 0px 0px 4px;&quot;&gt;+ salvar(Aluno: Aluno): void&lt;br style=&quot;border-color: var(--border-color);&quot;&gt;&lt;/p&gt;&lt;p style=&quot;border-color: var(--border-color); margin: 0px 0px 0px 4px;&quot;&gt;+ recuperarAlunos(): List&amp;lt;Aluno&amp;gt;&lt;/p&gt;" style="text;strokeColor=none;fillColor=none;align=left;verticalAlign=top;spacingLeft=4;spacingRight=4;overflow=hidden;rotatable=0;points=[[0,0.5],[1,0.5]];portConstraint=eastwest;whiteSpace=wrap;html=1;" vertex="1" parent="gP8CDhVlUT90JA3iP7vQ-11">
          <mxGeometry y="26" width="230" height="74" as="geometry" />
        </mxCell>
        <mxCell id="gP8CDhVlUT90JA3iP7vQ-13" value="GravadorJSON" style="swimlane;fontStyle=0;childLayout=stackLayout;horizontal=1;startSize=26;fillColor=none;horizontalStack=0;resizeParent=1;resizeParentMax=0;resizeLast=0;collapsible=1;marginBottom=0;whiteSpace=wrap;html=1;" vertex="1" parent="1">
          <mxGeometry x="644" y="397" width="230" height="100" as="geometry" />
        </mxCell>
        <mxCell id="gP8CDhVlUT90JA3iP7vQ-14" value="&lt;p style=&quot;border-color: var(--border-color); margin: 0px 0px 0px 4px;&quot;&gt;+ salvar(Aluno: Aluno): void&lt;br style=&quot;border-color: var(--border-color);&quot;&gt;&lt;/p&gt;&lt;p style=&quot;border-color: var(--border-color); margin: 0px 0px 0px 4px;&quot;&gt;+ recuperarAlunos(): List&amp;lt;Aluno&amp;gt;&lt;/p&gt;" style="text;strokeColor=none;fillColor=none;align=left;verticalAlign=top;spacingLeft=4;spacingRight=4;overflow=hidden;rotatable=0;points=[[0,0.5],[1,0.5]];portConstraint=eastwest;whiteSpace=wrap;html=1;" vertex="1" parent="gP8CDhVlUT90JA3iP7vQ-13">
          <mxGeometry y="26" width="230" height="74" as="geometry" />
        </mxCell>
        <mxCell id="gP8CDhVlUT90JA3iP7vQ-15" value="" style="endArrow=block;dashed=1;endFill=0;endSize=12;html=1;rounded=0;entryX=1;entryY=0.5;entryDx=0;entryDy=0;exitX=0.013;exitY=0.351;exitDx=0;exitDy=0;exitPerimeter=0;" edge="1" parent="1" source="gP8CDhVlUT90JA3iP7vQ-4" target="gP8CDhVlUT90JA3iP7vQ-2">
          <mxGeometry width="160" relative="1" as="geometry">
            <mxPoint x="381" y="303" as="sourcePoint" />
            <mxPoint x="541" y="303" as="targetPoint" />
          </mxGeometry>
        </mxCell>
        <mxCell id="gP8CDhVlUT90JA3iP7vQ-18" value="" style="endArrow=block;dashed=1;endFill=0;endSize=12;html=1;rounded=0;entryX=1;entryY=0.75;entryDx=0;entryDy=0;exitX=-0.013;exitY=0.243;exitDx=0;exitDy=0;exitPerimeter=0;" edge="1" parent="1" source="gP8CDhVlUT90JA3iP7vQ-12" target="gP8CDhVlUT90JA3iP7vQ-2">
          <mxGeometry width="160" relative="1" as="geometry">
            <mxPoint x="683" y="167" as="sourcePoint" />
            <mxPoint x="600" y="185" as="targetPoint" />
          </mxGeometry>
        </mxCell>
        <mxCell id="gP8CDhVlUT90JA3iP7vQ-19" value="" style="endArrow=block;dashed=1;endFill=0;endSize=12;html=1;rounded=0;" edge="1" parent="1" source="gP8CDhVlUT90JA3iP7vQ-13" target="gP8CDhVlUT90JA3iP7vQ-2">
          <mxGeometry width="160" relative="1" as="geometry">
            <mxPoint x="673" y="282" as="sourcePoint" />
            <mxPoint x="600" y="220" as="targetPoint" />
          </mxGeometry>
        </mxCell>
        <mxCell id="gP8CDhVlUT90JA3iP7vQ-20" value="" style="endArrow=block;endFill=1;html=1;align=left;verticalAlign=top;rounded=0;" edge="1" parent="1" source="gP8CDhVlUT90JA3iP7vQ-1" target="gP8CDhVlUT90JA3iP7vQ-2">
          <mxGeometry x="-1" relative="1" as="geometry">
            <mxPoint x="381" y="303" as="sourcePoint" />
            <mxPoint x="541" y="303" as="targetPoint" />
          </mxGeometry>
        </mxCell>
        <mxCell id="gP8CDhVlUT90JA3iP7vQ-21" value="1" style="edgeLabel;resizable=0;html=1;align=left;verticalAlign=bottom;" connectable="0" vertex="1" parent="gP8CDhVlUT90JA3iP7vQ-20">
          <mxGeometry x="-1" relative="1" as="geometry">
            <mxPoint x="50" y="-3" as="offset" />
          </mxGeometry>
        </mxCell>
      </root>
    </mxGraphModel>
  </diagram>
</mxfile>
